<?xml version="1.0" encoding="UTF-8"?>
<svg id="Layer_1" xmlns="http://www.w3.org/2000/svg" version="1.1" viewBox="0 0 156.5 155.2">
  <!-- Generator: Adobe Illustrator 29.2.1, SVG Export Plug-In . SVG Version: 2.1.0 Build 116)  -->
  <defs>
    <style>
      .st0 {
        fill: #fff;
      }
    </style>
  </defs>
  <path d="M132,21.6c-31.2-29.9-80.5-29.2-110.2,1.8-29.7,30.9-28.5,80.2,2.7,110.2,31.2,29.9,80.5,29.2,110.2-1.8s28.5-80.2-2.7-110.2ZM26.1,131.9C-3.9,103.1-4.8,55.4,24,25.5c28.8-30,76.5-30.9,106.5-2.1,30,28.8,30.9,76.5,2.1,106.5-28.8,30-76.5,30.9-106.5,2.1Z"/>
  <path d="M44.7,60.8c22.5-6.8,46-10.7,58.4-15.8,12.4-5.1,16.7-13.7,17.8-23.9h0c0-.1,0-.2,0-.4C92.6-.5,52.2,2.2,27,28.4,3,53.4.9,91.3,20.2,118.6c-5.3-15.3-10.3-47.2,24.5-57.8Z"/>
  <path d="M127.5,26.4c-2-1.9-4.1-3.7-6.3-5.4-1.2,11.1-5.9,41.5-17.4,48.4-16.5,10-38.6,7.7-61,20-17.1,9.4-17.5,28.1-17.9,35,1.3,1.5,2.7,3,4.2,4.4s3.9,3.5,5.9,5.1c1.3-2.2,6.6-7.2,12.8-10.3,8.7-4.5,16.9-4,29.7-7.7,6.4-1.9,12.5-4.1,16.9-7,4.4-2.9,7.4-6.2,8.2-9.2,1.6-6.1.4-.3-.1,2.5s-.8,3.1-1.3,5c-.5,1.9-1.2,3.5-1.5,4.4-.4.8-1.1,3.1-5.1,7.7-4,4.6-16.9,12.4-35.4,12.8-17.9.4-19.7,1.5-23.1,2.7,28.3,20.9,68.4,18.1,93.4-7.9,27.2-28.3,26.3-73.3-2-100.5ZM97.3,95.5c-3.8,3.9-13.8,8.2-21.2,9.8-7.4,1.7-11.6,1.8-19.3,3.6-7.7,1.7-17.5,5.8-18.8,11.6-1.3,5.8-2.9-16.1,13.2-21.1,8-2.5,9.3-2.7,13.8-3.8,4.5-1.1,12.6-2.5,16.5-3.5,7.9-2,12.2-3.8,17.2-6.9,4.9-3.1,7.9-7,8.8-9.8h0c1.9-5.5,0,3.4-2.7,9.1-2.6,5.7-3.6,7.2-7.4,11.1Z"/>
  <path class="st0" d="M120.9,20.8c0,0,.2.1.3.2.5-4.8.3-6-.3-.2Z"/>
  <path class="st0" d="M23.9,126.9c.6.7.8-.3.9-2.4-1.7-1.9-3.2-3.8-4.6-5.8,1.5,4.5,3.1,7.6,3.7,8.3Z"/>
  <path class="st0" d="M35.7,134.9h0c.1,0,.3,0,.4-.1-.4-.3-.7-.5-1.1-.8-.5.9-.4,1.3.7,1Z"/>
</svg>